<svg xmlns="http://www.w3.org/2000/svg" version="1.1" xmlns:xlink="http://www.w3.org/1999/xlink" xmlns:svgjs="http://svgjs.dev/svgjs" width="2000" height="247" viewBox="0 0 2000 247"><g transform="matrix(1,0,0,1,-1.2121212121212466,-0.6596742384115117)"><svg viewBox="0 0 396 49" data-background-color="#ffffff" preserveAspectRatio="xMidYMid meet" height="247" width="2000" xmlns="http://www.w3.org/2000/svg" xmlns:xlink="http://www.w3.org/1999/xlink"><g id="tight-bounds" transform="matrix(1,0,0,1,0.2400000000000091,0.13086654932050124)"><svg viewBox="0 0 395.52 48.738266901358976" height="48.738266901358976" width="395.52"><g><svg viewBox="0 0 514.6669575632196 63.42024560838035" height="48.738266901358976" width="395.52"><g><rect width="5.69084895388777" height="63.42024560838035" x="98.55859825884033" y="0" fill="#00aa5b" opacity="1" stroke-width="0" stroke="transparent" fill-opacity="1" class="rect-yte-0" data-fill-palette-color="primary" rx="1%" id="yte-0" data-palette-color="#00aa5b"></rect></g><g transform="matrix(1,0,0,1,119.14695756321964,0.15776180499596748)"><svg viewBox="0 0 395.52 63.10472199838841" height="63.10472199838841" width="395.52"><g id="textblocktransform"><svg viewBox="0 0 395.52 63.10472199838841" height="63.10472199838841" width="395.52" id="textblock"><g><svg viewBox="0 0 395.52 63.10472199838841" height="63.10472199838841" width="395.52"><g transform="matrix(1,0,0,1,0,0)"><svg width="395.52" viewBox="1 -38.9 248.18 39.6" height="63.10472199838841" data-palette-color="#00aa5b"><path d="M22.25-28.5Q23.25-28.5 24.15-28.3 25.05-28.1 25.65-27.8L25.65-27.8 25.65-18.25Q23.6-19.1 21.25-19.1L21.25-19.1Q18.1-19.1 16.4-17.45 14.7-15.8 14.7-12.55L14.7-12.55 14.7-8.2 19.2-8.2 19.2 0 1 0 1-8.2 3.2-8.2 3.2-19.6 1-19.6 1-27.8 14.7-27.8 14.7-24.15Q16.1-26.25 17.9-27.38 19.7-28.5 22.25-28.5L22.25-28.5ZM42.15 0.7Q35.05 0.7 31.05-3.03 27.05-6.75 27.05-13.9L27.05-13.9Q27.05-21.05 31.05-24.78 35.05-28.5 42.15-28.5L42.15-28.5Q49.2-28.5 52.32-24.83 55.45-21.15 55.45-15.7L55.45-15.7 55.45-12.1 39.25-12.1 39.25-11.8Q39.25-9.95 40.35-9.08 41.45-8.2 44-8.2L44-8.2Q47.05-8.2 49.8-8.65 52.55-9.1 54.6-9.8L54.6-9.8 54.6-1.8Q52.85-0.85 49.47-0.08 46.1 0.7 42.15 0.7L42.15 0.7ZM39.25-17.6L45.05-17.6 45.05-18.2Q45.05-19.9 44.32-20.65 43.6-21.4 42.15-21.4L42.15-21.4Q40.7-21.4 39.97-20.63 39.25-19.85 39.25-18.2L39.25-18.2 39.25-17.6ZM83.9-8.2L86.09-8.2 86.09 0 72.9 0 72.9-3.4Q71.8-1.8 69.82-0.55 67.84 0.7 65 0.7L65 0.7Q61.25 0.7 59.09-1.3 56.95-3.3 56.95-6.95L56.95-6.95Q56.95-16.4 73-16.65L73-16.65Q72.84-18.35 71.7-18.98 70.55-19.6 67.8-19.6L67.8-19.6Q65.55-19.6 62.97-19.13 60.4-18.65 58.25-17.85L58.25-17.85 58.25-27.05Q60.9-27.7 64-28.1 67.09-28.5 70.05-28.5L70.05-28.5Q77.5-28.5 80.7-25.8 83.9-23.1 83.9-17.45L83.9-17.45 83.9-8.2ZM72.9-11.4L72.9-11.7Q70.65-11.7 69.42-11.1 68.2-10.5 68.2-9.1L68.2-9.1Q68.2-8.25 68.72-7.73 69.25-7.2 70.2-7.2L70.2-7.2Q71.5-7.2 72.2-8.3 72.9-9.4 72.9-11.4L72.9-11.4ZM97.54 0.7Q92.44 0.7 89.87-3.1 87.29-6.9 87.29-13.9L87.29-13.9Q87.29-20.9 89.87-24.7 92.44-28.5 97.54-28.5L97.54-28.5Q100.09-28.5 102.07-27.25 104.04-26 105.29-24.4L105.29-24.4 105.29-30.7 102.34-30.7 102.34-38.9 116.79-38.9 116.79-8.2 118.99-8.2 118.99 0 105.29 0 105.29-3.4Q104.04-1.8 102.07-0.55 100.09 0.7 97.54 0.7L97.54 0.7ZM102.39-8.2Q103.84-8.2 104.57-8.97 105.29-9.75 105.29-11.4L105.29-11.4 105.29-16.4Q105.29-18.05 104.57-18.82 103.84-19.6 102.39-19.6L102.39-19.6Q100.94-19.6 100.22-18.82 99.49-18.05 99.49-16.4L99.49-16.4 99.49-11.4Q99.49-9.75 100.22-8.97 100.94-8.2 102.39-8.2L102.39-8.2ZM142.04 0.7Q139.49 0.7 137.51-0.55 135.54-1.8 134.29-3.4L134.29-3.4 134.29 0 120.59 0 120.59-8.2 122.79-8.2 122.79-30.7 120.59-30.7 120.59-38.9 134.29-38.9 134.29-24.4Q135.54-26 137.51-27.25 139.49-28.5 142.04-28.5L142.04-28.5Q147.14-28.5 149.72-24.7 152.29-20.9 152.29-13.9L152.29-13.9Q152.29-6.9 149.72-3.1 147.14 0.7 142.04 0.7L142.04 0.7ZM137.19-8.2Q138.64-8.2 139.37-8.97 140.09-9.75 140.09-11.4L140.09-11.4 140.09-16.4Q140.09-18.05 139.37-18.82 138.64-19.6 137.19-19.6L137.19-19.6Q135.74-19.6 135.01-18.82 134.29-18.05 134.29-16.4L134.29-16.4 134.29-11.4Q134.29-9.75 135.01-8.97 135.74-8.2 137.19-8.2L137.19-8.2ZM168.59 0.7Q161.49 0.7 157.49-3.03 153.49-6.75 153.49-13.9L153.49-13.9Q153.49-21.05 157.49-24.78 161.49-28.5 168.59-28.5L168.59-28.5Q175.79-28.5 179.74-24.73 183.69-20.95 183.69-13.9L183.69-13.9Q183.69-6.75 179.69-3.03 175.69 0.7 168.59 0.7L168.59 0.7ZM168.59-8.2Q170.04-8.2 170.76-8.97 171.49-9.75 171.49-11.4L171.49-11.4 171.49-16.4Q171.49-18.05 170.76-18.82 170.04-19.6 168.59-19.6L168.59-19.6Q167.14-19.6 166.41-18.82 165.69-18.05 165.69-16.4L165.69-16.4 165.69-11.4Q165.69-9.75 166.41-8.97 167.14-8.2 168.59-8.2L168.59-8.2ZM200.19 0.7Q193.08 0.7 189.08-3.03 185.08-6.75 185.08-13.9L185.08-13.9Q185.08-21.05 189.08-24.78 193.08-28.5 200.19-28.5L200.19-28.5Q207.38-28.5 211.33-24.73 215.28-20.95 215.28-13.9L215.28-13.9Q215.28-6.75 211.28-3.03 207.28 0.7 200.19 0.7L200.19 0.7ZM200.19-8.2Q201.63-8.2 202.36-8.97 203.08-9.75 203.08-11.4L203.08-11.4 203.08-16.4Q203.08-18.05 202.36-18.82 201.63-19.6 200.19-19.6L200.19-19.6Q198.73-19.6 198.01-18.82 197.28-18.05 197.28-16.4L197.28-16.4 197.28-11.4Q197.28-9.75 198.01-8.97 198.73-8.2 200.19-8.2L200.19-8.2ZM242.23-14.85L247.03-8.2 249.18-8.2 249.18 0 236.93 0 231.78-9.6 230.58-9.6 230.58 0 216.88 0 216.88-8.2 219.08-8.2 219.08-30.7 216.88-30.7 216.88-38.9 230.58-38.9 230.58-18.6 231.78-18.6 237.98-27.8 248.53-27.8 248.53-19.6 246.48-19.6 242.23-14.85Z" opacity="1" transform="matrix(1,0,0,1,0,0)" fill="#00aa5b" class="wordmark-text-0" data-fill-palette-color="primary" id="text-0"></path></svg></g></svg></g></svg></g></svg></g><g transform="matrix(1,0,0,1,0,0.15776180499596748)"><svg viewBox="0 0 83.66108790834879 63.10472199838841" height="63.10472199838841" width="83.66108790834879"><g><svg version="1.1" xmlns="http://www.w3.org/2000/svg" xmlns:xlink="http://www.w3.org/1999/xlink" x="0" y="0" viewBox="0 0 100 75.429" enable-background="new 0 0 100 75.429" xml:space="preserve" id="icon-0" width="83.66108790834879" height="63.10472199838841" class="icon-icon-0" data-fill-palette-color="accent"><path fill="#89939e" d="M96.721 75.429C87.707 75.429 89.617 66.409 73.764 66.409 57.912 66.409 53.469 75.429 49.988 75.429S42.063 66.409 26.211 66.409C10.361 66.409 12.262 75.429 3.254 75.429 1.592 75.429 0 74.243 0 72.192V12.804S9.677 0 26.21 0C42.746 0 50.12 9.092 50.12 9.092S57.092 0 73.764 0C94.33 0 100 13.116 100 13.116V72.15C100 74.198 98.578 75.429 96.721 75.429M95.08 14.757S90.161 4.918 73.764 4.918C56.684 4.918 53.833 14.659 50.12 14.659 46.406 14.659 44.015 4.918 26.21 4.918 12.625 4.918 4.895 14.757 4.895 14.757V68.87C4.895 69.893 5.509 70.51 6.535 70.51 6.535 70.51 11.016 61.489 26.211 61.489 42.774 61.489 50.121 70.337 50.121 70.337S57.23 61.489 73.764 61.489C88.661 61.489 93.442 70.51 93.442 70.51 94.467 70.51 95.083 69.894 95.083 68.87V14.757z" data-fill-palette-color="accent"></path><rect x="48.348" y="19.266" fill="#89939e" width="3.28" height="38.534" data-fill-palette-color="accent"></rect></svg></g></svg></g></svg></g><defs></defs></svg><rect width="395.52" height="48.738266901358976" fill="none" stroke="none" visibility="hidden"></rect></g></svg></g></svg>